<svg width="142" height="41" viewBox="0 0 142 41" fill="none" xmlns="http://www.w3.org/2000/svg">
<path d="M54.4574 29.1528C53.8014 29.1528 53.2828 29.5625 52.9015 30.3817C52.5259 31.201 52.338 32.3402 52.338 33.7993C52.338 36.8372 53.0809 38.3561 54.5667 38.3561C54.8175 38.3561 55.0729 38.3232 55.3329 38.2574C55.9256 38.1074 56.6104 38.4833 56.6104 39.0947V39.4597C56.6104 39.7127 56.4906 39.9558 56.2667 40.0735C55.7258 40.3578 55.0722 40.5 54.306 40.5C52.9211 40.5 51.8559 39.9139 51.1101 38.7418C50.37 37.5638 50 35.9103 50 33.7814C50 31.6525 50.3813 29.993 51.1438 28.803C51.9119 27.613 52.9772 27.0179 54.3397 27.0179C54.7882 27.0179 55.2171 27.0837 55.6264 27.2153C55.887 27.2979 56.1587 27.4195 56.4414 27.58C56.7525 27.7566 56.8657 28.1405 56.7381 28.4747L56.5378 28.9992C56.367 29.4465 55.8153 29.6079 55.3909 29.386C55.105 29.2306 54.7938 29.1528 54.4574 29.1528Z" fill="#231454"/>
<path d="M67.4041 33.7455C67.4041 35.9163 67.0228 37.5847 66.2603 38.7508C65.4978 39.9169 64.4072 40.5 62.9887 40.5C61.5646 40.5 60.4713 39.9199 59.7087 38.7598C58.9462 37.5937 58.565 35.9162 58.565 33.7276C58.565 31.5568 58.9462 29.8943 59.7087 28.7402C60.4713 27.5801 61.5702 27 63.0055 27C64.4241 27 65.5118 27.5831 66.2687 28.7492C67.0256 29.9093 67.4041 31.5747 67.4041 33.7455ZM60.903 33.7455C60.903 35.2405 61.0796 36.3797 61.4328 37.1631C61.7861 37.9465 62.3047 38.3382 62.9887 38.3382C64.368 38.3382 65.0576 36.8073 65.0576 33.7455C65.0576 30.6837 64.3736 29.1528 63.0055 29.1528C62.3103 29.1528 61.7861 29.5445 61.4328 30.3279C61.0796 31.1053 60.903 32.2445 60.903 33.7455Z" fill="#231454"/>
<path d="M78.6771 39.541C78.6771 39.9715 78.3281 40.3206 77.8975 40.3206H76.4127C76.0939 40.3206 75.8073 40.1265 75.6889 39.8306L72.0981 30.8576C72.0893 30.8357 72.068 30.8213 72.0443 30.8213C72.008 30.8213 71.9806 30.8544 71.9873 30.8902C72.1187 31.5941 72.1844 32.3486 72.1844 33.1535V39.541C72.1844 39.9715 71.8354 40.3206 71.4049 40.3206H70.8447C70.4141 40.3206 70.0651 39.9715 70.0651 39.541V27.9859C70.0651 27.5553 70.4141 27.2063 70.8447 27.2063H72.3467C72.6652 27.2063 72.9518 27.4002 73.0703 27.6959L76.6293 36.5757C76.6369 36.5946 76.6552 36.6069 76.6755 36.6069C76.7063 36.6069 76.7297 36.5793 76.7247 36.5489C76.6246 35.9331 76.5746 35.205 76.5746 34.3644V27.9859C76.5746 27.5553 76.9236 27.2063 77.3542 27.2063H77.8975C78.3281 27.2063 78.6771 27.5553 78.6771 27.9859V39.541Z" fill="#231454"/>
<path d="M83.9789 39.541C83.9789 39.9715 83.6299 40.3206 83.1993 40.3206H82.4878C82.0572 40.3206 81.7082 39.9715 81.7082 39.541V27.9859C81.7082 27.5553 82.0572 27.2063 82.4878 27.2063H86.4373C86.8678 27.2063 87.2168 27.5553 87.2168 27.9859V28.5347C87.2168 28.9652 86.8678 29.3143 86.4373 29.3143H84.7585C84.3279 29.3143 83.9789 29.6633 83.9789 30.0939V32.1765C83.9789 32.6071 84.3279 32.9561 84.7585 32.9561H86.2186C86.6491 32.9561 86.9982 33.3052 86.9982 33.7357V34.2845C86.9982 34.7151 86.6491 35.0641 86.2186 35.0641H84.7585C84.3279 35.0641 83.9789 35.4131 83.9789 35.8437V39.541Z" fill="#231454"/>
<path d="M95.1594 39.541C95.1594 39.9715 94.8104 40.3206 94.3798 40.3206H90.3967C89.9661 40.3206 89.6171 39.9715 89.6171 39.541V27.9859C89.6171 27.5553 89.9661 27.2063 90.3967 27.2063H94.3798C94.8104 27.2063 95.1594 27.5553 95.1594 27.9859V28.5347C95.1594 28.9652 94.8104 29.3143 94.3798 29.3143H92.6843C92.2537 29.3143 91.9047 29.6633 91.9047 30.0939V31.6563C91.9047 32.0868 92.2537 32.4359 92.6843 32.4359H94.1444C94.5749 32.4359 94.924 32.7849 94.924 33.2155V33.7732C94.924 34.2038 94.5749 34.5528 94.1444 34.5528H92.6843C92.2537 34.5528 91.9047 34.9018 91.9047 35.3324V37.4061C91.9047 37.8366 92.2537 38.1857 92.6843 38.1857H94.3798C94.8104 38.1857 95.1594 38.5347 95.1594 38.9653V39.541Z" fill="#231454"/>
<path d="M100.582 35.2166C100.316 35.2166 100.1 35.4328 100.1 35.6995V39.541C100.1 39.9715 99.7506 40.3206 99.32 40.3206H98.5916C98.1611 40.3206 97.812 39.9715 97.812 39.541V27.9859C97.812 27.5553 98.1611 27.2063 98.5916 27.2063H100.806C102.073 27.2063 103.007 27.5262 103.607 28.1661C104.212 28.806 104.515 29.7837 104.515 31.0993C104.515 32.4571 104.163 33.4794 103.458 34.1662C103.187 34.4311 103.048 34.8273 103.192 35.1784L104.863 39.2446C105.074 39.7576 104.697 40.3206 104.142 40.3206H103.396C103.072 40.3206 102.782 40.1207 102.667 39.8183L101.034 35.5277C100.963 35.3404 100.783 35.2166 100.582 35.2166ZM100.1 32.5289C100.1 32.854 100.363 33.1176 100.688 33.1176C101.227 33.1176 101.613 32.9561 101.849 32.6332C102.084 32.3043 102.202 31.8169 102.202 31.1711C102.202 30.5013 102.076 30.0259 101.824 29.7448C101.577 29.4578 101.193 29.3143 100.671 29.3143C100.356 29.3143 100.1 29.5703 100.1 29.8862V32.5289Z" fill="#231454"/>
<path d="M112.828 39.541C112.828 39.9715 112.479 40.3206 112.048 40.3206H108.065C107.634 40.3206 107.285 39.9715 107.285 39.541V27.9859C107.285 27.5553 107.634 27.2063 108.065 27.2063H112.048C112.479 27.2063 112.828 27.5553 112.828 27.9859V28.5347C112.828 28.9652 112.479 29.3143 112.048 29.3143H110.352C109.922 29.3143 109.573 29.6633 109.573 30.0939V31.6563C109.573 32.0868 109.922 32.4359 110.352 32.4359H111.813C112.243 32.4359 112.592 32.7849 112.592 33.2155V33.7732C112.592 34.2038 112.243 34.5528 111.813 34.5528H110.352C109.922 34.5528 109.573 34.9018 109.573 35.3324V37.4061C109.573 37.8366 109.922 38.1857 110.352 38.1857H112.048C112.479 38.1857 112.828 38.5347 112.828 38.9653V39.541Z" fill="#231454"/>
<path d="M124.092 39.541C124.092 39.9715 123.743 40.3206 123.313 40.3206H121.828C121.509 40.3206 121.222 40.1265 121.104 39.8306L117.513 30.8576C117.504 30.8357 117.483 30.8213 117.459 30.8213C117.423 30.8213 117.396 30.8544 117.402 30.8902C117.534 31.5941 117.6 32.3486 117.6 33.1535V39.541C117.6 39.9715 117.251 40.3206 116.82 40.3206H116.26C115.829 40.3206 115.48 39.9715 115.48 39.541V27.9859C115.48 27.5553 115.829 27.2063 116.26 27.2063H117.762C118.08 27.2063 118.367 27.4002 118.485 27.6959L122.044 36.5757C122.052 36.5946 122.07 36.6069 122.091 36.6069C122.121 36.6069 122.145 36.5793 122.14 36.5489C122.04 35.9331 121.99 35.205 121.99 34.3644V27.9859C121.99 27.5553 122.339 27.2063 122.769 27.2063H123.313C123.743 27.2063 124.092 27.5553 124.092 27.9859V39.541Z" fill="#231454"/>
<path d="M131.202 29.1528C130.546 29.1528 130.028 29.5625 129.646 30.3817C129.271 31.201 129.083 32.3402 129.083 33.7993C129.083 36.8372 129.826 38.3561 131.312 38.3561C131.562 38.3561 131.818 38.3232 132.078 38.2574C132.67 38.1074 133.355 38.4833 133.355 39.0947V39.4597C133.355 39.7127 133.235 39.9558 133.011 40.0735C132.471 40.3578 131.817 40.5 131.051 40.5C129.666 40.5 128.601 39.9139 127.855 38.7418C127.115 37.5638 126.745 35.9103 126.745 33.7814C126.745 31.6525 127.126 29.993 127.889 28.803C128.657 27.613 129.722 27.0179 131.084 27.0179C131.533 27.0179 131.962 27.0837 132.371 27.2153C132.632 27.2979 132.903 27.4195 133.186 27.58C133.497 27.7566 133.611 28.1405 133.483 28.4747L133.283 28.9992C133.112 29.4465 132.56 29.6079 132.136 29.386C131.85 29.2306 131.539 29.1528 131.202 29.1528Z" fill="#231454"/>
<path d="M141.5 39.541C141.5 39.9715 141.151 40.3206 140.72 40.3206H136.737C136.306 40.3206 135.957 39.9715 135.957 39.541V27.9859C135.957 27.5553 136.306 27.2063 136.737 27.2063H140.72C141.151 27.2063 141.5 27.5553 141.5 27.9859V28.5347C141.5 28.9652 141.151 29.3143 140.72 29.3143H139.025C138.594 29.3143 138.245 29.6633 138.245 30.0939V31.6563C138.245 32.0868 138.594 32.4359 139.025 32.4359H140.485C140.915 32.4359 141.264 32.7849 141.264 33.2155V33.7732C141.264 34.2038 140.915 34.5528 140.485 34.5528H139.025C138.594 34.5528 138.245 34.9018 138.245 35.3324V37.4061C138.245 37.8366 138.594 38.1857 139.025 38.1857H140.72C141.151 38.1857 141.5 38.5347 141.5 38.9653V39.541Z" fill="#231454"/>
<path d="M39.2753 24.7515L39.2766 24.7521C39.0548 25.4179 38.8397 26.0858 38.6067 26.7472C38.0727 28.2655 37.5319 29.7838 36.9844 31.2977C36.9328 31.4407 36.8408 31.5882 36.7264 31.685C34.3299 33.7072 31.9246 35.7228 29.5282 37.7472C29.3666 37.8836 29.2387 37.8396 29.0861 37.789C25.3636 36.5238 21.6433 35.2563 17.9208 33.9911C16.6486 33.5576 15.3786 33.1219 14.1063 32.6972C13.9313 32.6378 13.8505 32.563 13.8101 32.3781C13.5521 31.2141 13.2761 30.0523 13.0068 28.8904C12.9858 28.7998 13.0819 28.7243 13.1707 28.7521C13.8186 28.9548 14.4359 29.1491 15.0532 29.3415C19.5319 30.7344 24.0106 32.1273 28.4893 33.5268C28.6867 33.5884 28.8191 33.5774 28.9829 33.4365C31.3524 31.4143 33.7286 29.3987 36.1026 27.3831C37.0966 26.5382 38.0906 25.6932 39.0869 24.8526C39.1407 24.8086 39.2125 24.7844 39.2753 24.7515Z" fill="url(#paint0_linear_2538_421)"/>
<path d="M14.9113 8.71243C15.4876 8.8901 15.654 9.62708 15.2099 10.0351C14.8438 10.3715 14.4843 10.7014 14.1242 11.0302C12.2102 12.7839 10.294 14.5333 8.37776 16.2848C6.97088 17.5699 5.56624 18.8593 4.15263 20.1378C3.99332 20.283 3.95966 20.4172 3.99332 20.6131C4.73154 24.7543 5.46527 28.8955 6.199 33.0368C6.22083 33.1604 6.24397 33.2848 6.25921 33.4153C6.27407 33.5425 6.12136 33.6045 6.03745 33.5077C4.6171 31.8661 3.19676 30.2246 1.78314 28.5787C1.69788 28.4797 1.63729 28.341 1.61486 28.2134C1.13468 25.465 0.661229 22.7167 0.187781 19.9662C0.136172 19.6713 0.109246 19.372 0.0284686 19.086C-0.0478216 18.8109 0.0307125 18.6393 0.24612 18.4522C4.24014 14.9976 8.22518 11.5319 12.2147 8.07497C12.2888 8.01116 12.4324 7.95835 12.5176 7.98255C13.3115 8.22 14.1025 8.46308 14.9113 8.71243Z" fill="url(#paint1_linear_2538_421)"/>
<path d="M31.9602 21.325C31.8952 21.3927 31.7787 21.3388 31.7551 21.248C31.5164 20.3275 31.285 19.4323 31.0536 18.5371C29.9901 14.4223 28.922 10.3074 27.8719 6.18822C27.7866 5.85596 27.6341 5.70853 27.3087 5.6007C23.1688 4.25404 19.0357 2.89196 14.9003 1.53209C14.8059 1.50123 14.8166 1.36359 14.9141 1.34423C15.5188 1.22401 16.0704 1.11322 16.6236 1.00399C18.2189 0.689326 19.8143 0.372463 21.4097 0.0644012C21.5623 0.0357955 21.7418 0.0269937 21.8876 0.0754034C24.8584 1.0612 27.8248 2.058 30.7934 3.046C31.0065 3.11641 31.0918 3.22423 31.1412 3.43987C32.2922 8.46348 33.4545 13.4871 34.6056 18.5107C34.6303 18.6229 34.6056 18.7989 34.5293 18.8715C33.6812 19.6989 32.8195 20.5109 31.9602 21.325Z" fill="url(#paint2_linear_2538_421)"/>
<path d="M33.9464 6.45866C33.9234 6.35162 34.0704 6.29083 34.1442 6.37174C34.3734 6.62325 34.5797 6.84839 34.7834 7.07478C36.0175 8.45006 37.2538 9.82533 38.4812 11.2072C38.5822 11.3216 38.6607 11.4757 38.6921 11.6231C39.3002 14.6069 39.9015 17.5929 40.4894 20.5811C40.5119 20.6977 40.449 20.8803 40.3615 20.9618C37.8821 23.182 35.3937 25.3934 32.9053 27.6049C31.5455 28.8151 30.1813 30.021 28.8283 31.2378C28.6398 31.4072 28.4782 31.4579 28.2269 31.3808C27.5198 31.1672 26.8101 30.9613 26.1182 30.7615C25.5605 30.6005 25.3539 29.8956 25.7542 29.4752C25.8612 29.3627 25.9708 29.2521 26.0841 29.1452C28.182 27.1648 30.2912 25.1954 32.3982 23.2238C33.7333 21.9718 35.0683 20.7197 36.4101 19.4765C36.5582 19.34 36.5852 19.2212 36.547 19.0342C35.8761 15.8127 35.2142 12.5891 34.55 9.36764C34.3503 8.39725 34.1461 7.42685 33.9464 6.45866Z" fill="url(#paint3_linear_2538_421)"/>
<path d="M25.2209 38.7626C25.2204 38.7794 25.2077 38.7929 25.1911 38.7959C24.599 38.9065 24.0069 39.0191 23.4148 39.1252C21.7925 39.4157 20.168 39.7062 18.5435 39.9878C18.4133 40.0098 18.2608 40.0032 18.1351 39.9592C15.1912 38.9272 12.2518 37.8864 9.30789 36.8566C9.11716 36.7906 9.03863 36.6937 8.99599 36.5067C7.8651 31.5205 6.72748 26.5343 5.58313 21.5525C5.53152 21.3237 5.56742 21.1917 5.74468 21.031C6.28431 20.5422 6.81764 20.0464 7.36117 19.539C7.7938 19.1352 8.50093 19.3412 8.64937 19.9141C8.72399 20.2021 8.79754 20.4867 8.87034 20.7714C10.0012 25.1899 11.1321 29.6061 12.254 34.0268C12.3034 34.2249 12.4133 34.2975 12.5906 34.3591C16.7058 35.7784 20.8187 37.2043 24.9339 38.6279C25.0218 38.658 25.1098 38.6936 25.196 38.7263C25.2111 38.732 25.2213 38.7464 25.2209 38.7626Z" fill="url(#paint4_linear_2538_421)"/>
<path d="M27.4325 9.34112C27.5534 9.91648 27.0185 10.415 26.4529 10.2544C25.8583 10.0856 25.2787 9.92122 24.6991 9.75527C20.5637 8.57364 16.4261 7.3898 12.293 6.20376C12.0865 6.14435 11.9452 6.17296 11.7724 6.31379C8.39769 9.07094 5.02072 11.8215 1.64152 14.5742C1.63949 14.5759 1.63746 14.5775 1.63543 14.5791C1.54478 14.6516 1.41022 14.5597 1.45079 14.451C2.20472 12.5014 2.95864 10.5496 3.72155 8.60224C3.78437 8.44161 3.89432 8.28098 4.02446 8.16436C6.13142 6.28738 8.24735 4.41921 10.3543 2.54003C10.5428 2.3728 10.7066 2.3904 10.9153 2.44761C15.542 3.72607 20.1711 5.00232 24.7978 6.27638C25.4149 6.44581 26.0319 6.60864 26.6445 6.78908C26.7522 6.82209 26.907 6.91231 26.925 6.99812C27.1013 7.77324 27.266 8.5493 27.4325 9.34112Z" fill="url(#paint5_linear_2538_421)"/>
<path d="M39.2789 24.7536C39.2781 24.7525 39.2781 24.7511 39.2788 24.7499C39.281 24.7452 39.2853 24.7467 39.2838 24.7517C39.2837 24.7522 39.2835 24.7527 39.2834 24.7532C39.2828 24.755 39.281 24.7561 39.2797 24.7546C39.2794 24.7543 39.2792 24.754 39.2789 24.7536Z" fill="url(#paint6_linear_2538_421)"/>
<path d="M58.6212 3.48717C58.6212 3.91812 58.2718 4.26748 57.8408 4.26748H55.6499C55.219 4.26748 54.8696 4.61684 54.8696 5.04779V21.9072C54.8696 22.3381 54.5203 22.6875 54.0893 22.6875H50.8502C50.4192 22.6875 50.0699 22.3381 50.0699 21.9072V5.04779C50.0699 4.61684 49.7205 4.26748 49.2896 4.26748H47.0987C46.6677 4.26748 46.3184 3.91812 46.3184 3.48717V0.780309C46.3184 0.349357 46.6677 0 47.0987 0H57.8408C58.2718 0 58.6212 0.349356 58.6212 0.780308V3.48717Z" fill="#F62286"/>
<path d="M77.3209 21.9072C77.3209 22.3381 76.9715 22.6875 76.5405 22.6875H73.2876C72.8567 22.6875 72.5073 22.3381 72.5073 21.9072V13.8155C72.5073 13.3846 72.158 13.0352 71.727 13.0352H69.6464C69.2155 13.0352 68.8661 13.3846 68.8661 13.8155V21.9072C68.8661 22.3381 68.5168 22.6875 68.0858 22.6875H64.8329C64.4019 22.6875 64.0526 22.3381 64.0526 21.9072V0.780308C64.0526 0.349356 64.4019 0 64.8329 0H68.0858C68.5168 0 68.8661 0.349356 68.8661 0.780308V7.97191C68.8661 8.40286 69.2155 8.75222 69.6464 8.75222H71.727C72.158 8.75222 72.5073 8.40286 72.5073 7.97191V0.78031C72.5073 0.349357 72.8567 0 73.2876 0H76.5405C76.9715 0 77.3209 0.349356 77.3209 0.780308V21.9072Z" fill="#F62286"/>
<path d="M84.2281 0.780308C84.2281 0.349356 84.5774 0 85.0084 0H89.5795C91.7955 0 93.4322 0.563825 94.4896 1.69147C95.547 2.81912 96.0757 4.54681 96.0757 6.87452C96.0757 9.31087 95.4057 11.145 94.0657 12.3769C93.8069 12.6148 93.6952 12.9831 93.8226 13.3108L97.0554 21.6244C97.2543 22.1359 96.8769 22.6875 96.3281 22.6875H92.9274C92.5986 22.6875 92.305 22.4813 92.1934 22.1719L89.3246 14.2178C89.3038 14.16 89.2489 14.1215 89.1874 14.1215C89.1069 14.1215 89.0416 14.1868 89.0416 14.2673V21.9072C89.0416 22.3381 88.6922 22.6875 88.2613 22.6875H85.0084C84.5774 22.6875 84.2281 22.3381 84.2281 21.9072V0.780308ZM89.3726 4.20541C89.1898 4.20541 89.0416 4.35361 89.0416 4.53643V9.57299C89.0416 9.77104 89.2022 9.93159 89.4002 9.93159C90.0347 9.93159 90.4944 9.68847 90.7794 9.20224C91.0737 8.71601 91.2208 7.98148 91.2208 6.99867C91.2208 6.00551 91.0691 5.29168 90.7657 4.85717C90.4714 4.42266 90.0071 4.20541 89.3726 4.20541Z" fill="#F62286"/>
<path d="M106.472 21.9072C106.472 22.3381 106.123 22.6875 105.692 22.6875H102.646C102.215 22.6875 101.866 22.3381 101.866 21.9072V0.780308C101.866 0.349356 102.215 0 102.646 0H105.692C106.123 0 106.472 0.349356 106.472 0.780308V21.9072Z" fill="#F62286"/>
<path d="M121.716 22.0669C121.64 22.4285 121.321 22.6875 120.952 22.6875H116.552C116.182 22.6875 115.863 22.428 115.788 22.066L111.396 0.939147C111.295 0.454676 111.665 0 112.16 0H115.396C115.771 0 116.092 0.265966 116.163 0.633734L118.662 13.7025C118.686 13.8206 118.87 13.8225 118.893 13.7042L121.369 0.635029C121.439 0.266654 121.761 0 122.136 0H125.37C125.865 0 126.235 0.45532 126.134 0.940037L121.716 22.0669Z" fill="#F62286"/>
<path d="M141.072 3.4251C141.072 3.85605 140.723 4.20541 140.292 4.20541H136.68C136.249 4.20541 135.9 4.55476 135.9 4.98572V8.00294C135.9 8.4339 136.249 8.78325 136.68 8.78325H139.919C140.35 8.78325 140.7 9.13261 140.7 9.56356V12.2239C140.7 12.6548 140.35 13.0042 139.919 13.0042H136.68C136.249 13.0042 135.9 13.3535 135.9 13.7845V17.6552C135.9 18.0862 136.249 18.4355 136.68 18.4355H140.292C140.723 18.4355 141.072 18.7849 141.072 19.2158V21.9072C141.072 22.3381 140.723 22.6875 140.292 22.6875H131.853C131.422 22.6875 131.072 22.3381 131.072 21.9072V0.780308C131.072 0.349356 131.422 0 131.853 0H140.292C140.723 0 141.072 0.349356 141.072 0.780308V3.4251Z" fill="#F62286"/>
<defs>
<linearGradient id="paint0_linear_2538_421" x1="10.5" y1="4.5" x2="13.3137" y2="40.0339" gradientUnits="userSpaceOnUse">
<stop stop-color="#F94A8B"/>
<stop offset="0.937287" stop-color="#5522CB"/>
</linearGradient>
<linearGradient id="paint1_linear_2538_421" x1="10.5" y1="5" x2="45.9187" y2="18.4192" gradientUnits="userSpaceOnUse">
<stop stop-color="#F94A8B"/>
<stop offset="0.937287" stop-color="#5522CB"/>
</linearGradient>
<linearGradient id="paint2_linear_2538_421" x1="9.5" y1="5.5" x2="41.5264" y2="35.8013" gradientUnits="userSpaceOnUse">
<stop stop-color="#F94A8B"/>
<stop offset="0.937287" stop-color="#5522CB"/>
</linearGradient>
<linearGradient id="paint3_linear_2538_421" x1="9.5" y1="4.5" x2="47.1539" y2="17.0695" gradientUnits="userSpaceOnUse">
<stop stop-color="#F94A8B"/>
<stop offset="0.937287" stop-color="#5522CB"/>
</linearGradient>
<linearGradient id="paint4_linear_2538_421" x1="10.5" y1="5" x2="41.9567" y2="37.6318" gradientUnits="userSpaceOnUse">
<stop stop-color="#F94A8B"/>
<stop offset="0.937287" stop-color="#5522CB"/>
</linearGradient>
<linearGradient id="paint5_linear_2538_421" x1="8.5" y1="7" x2="12.4979" y2="40.1921" gradientUnits="userSpaceOnUse">
<stop stop-color="#F94A8B"/>
<stop offset="1" stop-color="#5522CB"/>
</linearGradient>
<linearGradient id="paint6_linear_2538_421" x1="39.2788" y1="24.7479" x2="39.2859" y2="24.7526" gradientUnits="userSpaceOnUse">
<stop stop-color="#F94A8B"/>
<stop offset="0.937287" stop-color="#5522CB"/>
</linearGradient>
</defs>
</svg>
